<svg width="74" height="74" viewBox="0 0 74 74" fill="none" xmlns="http://www.w3.org/2000/svg">
<circle cx="36.7686" cy="36.7686" r="34.0306" fill="#7E56E6" stroke="#FF977C" stroke-width="5.47618"/>
<path d="M36.4008 15.4468C36.7561 15.1819 37.2435 15.1824 37.5982 15.4482L55.5969 28.9322C56.3662 29.5086 55.9586 30.7326 54.9973 30.7326H54C53.4477 30.7326 53 31.1803 53 31.7326V55C53 55.5523 52.5523 56 52 56H43.5C42.9477 56 42.5 55.5523 42.5 55V46.5222C42.5 45.9699 42.0523 45.5222 41.5 45.5222H37H32.5C31.9477 45.5222 31.5 45.9699 31.5 46.5222V55C31.5 55.5523 31.0523 56 30.5 56H22C21.4477 56 21 55.5523 21 55V31.6606C21 31.1083 20.5523 30.6606 20 30.6606H19.0137C18.0513 30.6606 17.6444 29.4343 18.4159 28.859L36.4008 15.4468Z" fill="#FFEBBD"/>
<path d="M38.4976 14.2477C37.898 15.048 37.2984 15.8483 36.6988 16.6486C38.7707 18.2008 40.8427 19.7531 42.9146 21.3053C46.8422 24.2477 50.7699 27.1902 54.6976 30.1327C54.5589 30.054 54.4486 29.7235 54.523 29.5746C54.5527 29.4108 54.8392 29.2125 54.9973 29.2326C54.6649 29.2326 54.3324 29.2326 54 29.2326C52.6668 29.2021 51.4695 30.3993 51.5 31.7326C51.5 39.4884 51.5 47.2442 51.5 55C51.4955 54.7321 51.7321 54.4955 52 54.5C49.1667 54.5 46.3333 54.5 43.5 54.5C43.7679 54.4955 44.0045 54.7321 44 55C44 52.1741 44 49.3481 44 46.5222C44.0305 45.189 42.8332 43.9918 41.5 44.0222C40 44.0222 38.5 44.0222 37 44.0222C35.5 44.0222 34 44.0222 32.5 44.0222C31.1668 43.9918 29.9695 45.189 30 46.5222C30 47.7989 30 49.0756 30 50.3523C30 51.9015 30 53.4508 30 55C29.9955 54.7321 30.2321 54.4955 30.5 54.5C27.6667 54.5 24.8333 54.5 22 54.5C22.2679 54.4955 22.5045 54.7321 22.5 55C22.5 47.2202 22.5 39.4404 22.5 31.6606C22.5305 30.3274 21.3332 29.1302 20 29.1606C19.6712 29.1606 19.3425 29.1606 19.0137 29.1606C19.1718 29.1404 19.4588 29.3393 19.4883 29.5031C19.5626 29.6521 19.4514 29.9831 19.3126 30.0614C23.5753 26.8826 27.838 23.7037 32.1007 20.5248C33.8329 19.233 35.5652 17.9411 37.2975 16.6493C37.1256 16.7806 36.8705 16.7803 36.6988 16.6486C37.2984 15.8483 37.898 15.048 38.4976 14.2477C37.6429 13.5889 36.3602 13.5875 35.5041 14.2444C33.7718 15.5362 32.0395 16.8281 30.3072 18.1199C26.0445 21.2988 21.7819 24.4777 17.5192 27.6565C15.6063 28.9266 16.721 32.2861 19.0137 32.1606C19.3425 32.1606 19.6712 32.1606 20 32.1606C19.7321 32.1652 19.4955 31.9285 19.5 31.6606C19.5 39.4404 19.5 47.2202 19.5 55C19.4695 56.3332 20.6668 57.5304 22 57.5C24.8333 57.5 27.6667 57.5 30.5 57.5C31.8332 57.5305 33.0305 56.3332 33 55C33 53.4508 33 51.9015 33 50.3523C33 49.0756 33 47.7989 33 46.5222C33.0045 46.7901 32.7679 47.0268 32.5 47.0222C34 47.0222 35.5 47.0222 37 47.0222C38.5 47.0222 40 47.0222 41.5 47.0222C41.2321 47.0268 40.9955 46.7901 41 46.5222C41 49.3481 41 52.1741 41 55C40.9695 56.3332 42.1668 57.5304 43.5 57.5C46.3333 57.5 49.1667 57.5 52 57.5C53.3332 57.5305 54.5305 56.3332 54.5 55C54.5 47.2442 54.5 39.4884 54.5 31.7326C54.5045 32.0005 54.2679 32.2371 54 32.2326C54.3324 32.2326 54.6649 32.2326 54.9973 32.2326C57.2874 32.3577 58.4041 29.0046 56.4963 27.7318C52.5686 24.7893 48.641 21.8468 44.7133 18.9043C42.6414 17.3521 40.5695 15.7999 38.4976 14.2477ZM36.6988 16.6486L38.4976 14.2477L36.6988 16.6486V16.6486Z" fill="#FFEBBD"/>
</svg>
